<svg width="56" height="55" viewBox="0 0 56 55" fill="none" xmlns="http://www.w3.org/2000/svg">
<g clip-path="url(#clip0_1_273)">
<path fill-rule="evenodd" clip-rule="evenodd" d="M58.0161 -3.01351C59.3049 -1.72478 59.3049 0.364669 58.0161 1.6534L43.0638 16.6057C41.7751 17.8944 39.6856 17.8944 38.3969 16.6057C37.1081 15.3169 37.1081 13.2275 38.3969 11.9388L53.3492 -3.01351C54.638 -4.30224 56.7274 -4.30224 58.0161 -3.01351Z" fill="white"/>
<path fill-rule="evenodd" clip-rule="evenodd" d="M35.7115 19.2911C37.0002 20.5798 37.0002 22.6692 35.7115 23.958L31.1898 28.4797C29.901 29.7684 27.8116 29.7684 26.5228 28.4797C25.2341 27.1909 25.2341 25.1015 26.5228 23.8127L31.0445 19.2911C32.3333 18.0023 34.4227 18.0023 35.7115 19.2911Z" fill="white"/>
<path fill-rule="evenodd" clip-rule="evenodd" d="M23.8345 31.1656C25.1232 32.4543 25.1232 34.5437 23.8345 35.8325L8.88216 50.7848C7.59342 52.0735 5.50397 52.0735 4.21523 50.7848C2.9265 49.496 2.9265 47.4066 4.21523 46.1178L19.1676 31.1656C20.4563 29.8768 22.5458 29.8768 23.8345 31.1656Z" fill="white"/>
<path fill-rule="evenodd" clip-rule="evenodd" d="M57.9195 13.9803C59.2082 15.269 59.2082 17.3584 57.9195 18.6472L42.9671 33.5995C41.6784 34.8882 39.5889 34.8882 38.3002 33.5995C37.0115 32.3107 37.0115 30.2213 38.3002 28.9325L53.2525 13.9803C54.5413 12.6915 56.6307 12.6915 57.9195 13.9803Z" fill="white"/>
<path fill-rule="evenodd" clip-rule="evenodd" d="M35.6118 36.2851C36.9006 37.5738 36.9006 39.6633 35.6118 40.952L31.0902 45.4737C29.8014 46.7624 27.712 46.7624 26.4232 45.4737C25.1345 44.1849 25.1345 42.0955 26.4232 40.8068L30.9449 36.2851C32.2337 34.9963 34.3231 34.9963 35.6118 36.2851Z" fill="white"/>
<path fill-rule="evenodd" clip-rule="evenodd" d="M23.7368 48.1596C25.0256 49.4483 25.0256 51.5378 23.7368 52.8265L8.7845 67.7788C7.49577 69.0675 5.40631 69.0675 4.11758 67.7788C2.82884 66.49 2.82884 64.4006 4.11758 63.1119L19.0699 48.1596C20.3587 46.8709 22.4481 46.8709 23.7368 48.1596Z" fill="white"/>
<path fill-rule="evenodd" clip-rule="evenodd" d="M36.5992 1.50468C37.8879 2.79341 37.8879 4.88286 36.5992 6.17159L21.6468 21.1239C20.3581 22.4126 18.2686 22.4126 16.9799 21.1239C15.6911 19.8351 15.6911 17.7457 16.9799 16.457L31.9322 1.50468C33.221 0.215949 35.3104 0.215949 36.5992 1.50468Z" fill="white"/>
<path fill-rule="evenodd" clip-rule="evenodd" d="M14.2935 23.8092C15.5822 25.098 15.5822 27.1874 14.2935 28.4762L9.77179 32.9978C8.48306 34.2866 6.3936 34.2866 5.10486 32.9978C3.81613 31.7091 3.81613 29.6197 5.10486 28.3309L9.62656 23.8092C10.9153 22.5205 13.0048 22.5205 14.2935 23.8092Z" fill="white"/>
<path fill-rule="evenodd" clip-rule="evenodd" d="M2.41751 35.6835C3.70625 36.9722 3.70625 39.0617 2.41751 40.3504L-12.5348 55.3027C-13.8236 56.5914 -15.913 56.5914 -17.2018 55.3027C-18.4905 54.014 -18.4905 51.9245 -17.2018 50.6358L-2.24941 35.6835C-0.960677 34.3948 1.12878 34.3948 2.41751 35.6835Z" fill="white"/>
<path fill-rule="evenodd" clip-rule="evenodd" d="M24.5523 -3.34493C25.841 -2.0562 25.841 0.033249 24.5523 1.32198L20.0306 5.84366C18.7418 7.1324 16.6524 7.1324 15.3637 5.84367C14.0749 4.55494 14.0749 2.46549 15.3637 1.17676L19.8854 -3.34493C21.1741 -4.63366 23.2635 -4.63366 24.5523 -3.34493Z" fill="white"/>
<path fill-rule="evenodd" clip-rule="evenodd" d="M12.6773 8.52934C13.966 9.81807 13.966 11.9075 12.6773 13.1962L-2.27507 28.1485C-3.5638 29.4373 -5.65326 29.4373 -6.94199 28.1485C-8.23073 26.8598 -8.23073 24.7704 -6.94199 23.4816L8.01035 8.52934C9.29909 7.24061 11.3885 7.24061 12.6773 8.52934Z" fill="white"/>
<path fill-rule="evenodd" clip-rule="evenodd" d="M56.1626 32.6336C57.4514 33.9223 57.4514 36.0118 56.1626 37.3005L51.6409 41.8222C50.3522 43.1109 48.2627 43.1109 46.974 41.8222C45.6853 40.5335 45.6853 38.444 46.974 37.1553L51.4957 32.6336C52.7844 31.3449 54.8739 31.3449 56.1626 32.6336Z" fill="white"/>
<path fill-rule="evenodd" clip-rule="evenodd" d="M44.2867 44.5081C45.5754 45.7968 45.5754 47.8863 44.2867 49.175L29.3343 64.1273C28.0456 65.416 25.9561 65.416 24.6674 64.1273C23.3786 62.8386 23.3786 60.7491 24.6674 59.4604L39.6197 44.5081C40.9085 43.2194 42.9979 43.2194 44.2867 44.5081Z" fill="white"/>
</g>
<defs>
<clipPath id="clip0_1_273">
<rect width="55.2452" height="55" rx="27.5" fill="white"/>
</clipPath>
</defs>
</svg>
