<svg width="18" height="27" viewBox="0 0 18 27" fill="none" xmlns="http://www.w3.org/2000/svg">
<path d="M17.2475 0.75862C17.2475 0.559773 17.1685 0.36907 17.0279 0.228464C16.8873 0.0878582 16.6966 0.00886631 16.4978 0.00886631H12.749C10.8613 -0.0851665 9.01311 0.571769 7.60826 1.83614C6.20341 3.1005 5.35609 4.86951 5.25145 6.75665V10.8053H1.50268C1.30384 10.8053 1.11313 10.8843 0.972528 11.0249C0.831922 11.1655 0.75293 11.3562 0.75293 11.5551V15.4538C0.75293 15.6526 0.831922 15.8433 0.972528 15.9839C1.11313 16.1246 1.30384 16.2035 1.50268 16.2035H5.25145V26.2502C5.25145 26.4491 5.33044 26.6398 5.47105 26.7804C5.61166 26.921 5.80236 27 6.00121 27H10.4997C10.6986 27 10.8893 26.921 11.0299 26.7804C11.1705 26.6398 11.2495 26.4491 11.2495 26.2502V16.2035H15.1782C15.3449 16.2059 15.5077 16.1527 15.6408 16.0522C15.7738 15.9517 15.8696 15.8097 15.913 15.6487L16.9926 11.75C17.0224 11.6392 17.0264 11.5231 17.0043 11.4105C16.9822 11.2979 16.9345 11.1919 16.865 11.1007C16.7955 11.0094 16.7059 10.9353 16.6033 10.8841C16.5006 10.8329 16.3876 10.806 16.2728 10.8053H11.2495V6.75665C11.2868 6.38549 11.4611 6.04155 11.7384 5.79201C12.0156 5.54246 12.376 5.40522 12.749 5.40709H16.4978C16.6966 5.40709 16.8873 5.3281 17.0279 5.18749C17.1685 5.04689 17.2475 4.85619 17.2475 4.65734V0.75862Z" fill="black"/>
</svg>
