<svg width="26" height="27" viewBox="0 0 26 27" fill="none" xmlns="http://www.w3.org/2000/svg">
<path d="M13.0029 6.83393C9.31389 6.83393 6.33832 9.81016 6.33832 13.5C6.33832 17.1898 9.31389 20.1661 13.0029 20.1661C16.6919 20.1661 19.6675 17.1898 19.6675 13.5C19.6675 9.81016 16.6919 6.83393 13.0029 6.83393ZM13.0029 17.8338C10.619 17.8338 8.67005 15.8903 8.67005 13.5C8.67005 11.1097 10.6132 9.16618 13.0029 9.16618C15.3926 9.16618 17.3358 11.1097 17.3358 13.5C17.3358 15.8903 15.3868 17.8338 13.0029 17.8338ZM21.4946 6.56125C21.4946 7.42569 20.7986 8.11609 19.9401 8.11609C19.0759 8.11609 18.3856 7.41989 18.3856 6.56125C18.3856 5.70261 19.0817 5.00641 19.9401 5.00641C20.7986 5.00641 21.4946 5.70261 21.4946 6.56125ZM25.9086 8.1393C25.81 6.05651 25.3344 4.21159 23.8089 2.69157C22.2892 1.17154 20.4447 0.695805 18.3624 0.591376C16.2163 0.469541 9.78372 0.469541 7.63759 0.591376C5.56107 0.690003 3.71656 1.16574 2.19108 2.68576C0.665589 4.20579 0.195761 6.05071 0.0913553 8.13349C-0.0304518 10.2801 -0.0304518 16.7141 0.0913553 18.8607C0.189961 20.9435 0.665589 22.7884 2.19108 24.3084C3.71656 25.8285 5.55527 26.3042 7.63759 26.4086C9.78372 26.5305 16.2163 26.5305 18.3624 26.4086C20.4447 26.31 22.2892 25.8343 23.8089 24.3084C25.3286 22.7884 25.8042 20.9435 25.9086 18.8607C26.0305 16.7141 26.0305 10.2859 25.9086 8.1393ZM23.1361 21.164C22.6837 22.3011 21.8078 23.1771 20.6651 23.6354C18.954 24.3142 14.8938 24.1576 13.0029 24.1576C11.112 24.1576 7.04596 24.3084 5.34066 23.6354C4.20379 23.1829 3.32794 22.3069 2.86972 21.164C2.19108 19.4525 2.34769 15.3913 2.34769 13.5C2.34769 11.6087 2.19688 7.54173 2.86972 5.83605C3.32214 4.69893 4.19799 3.82288 5.34066 3.36455C7.05176 2.68576 11.112 2.84241 13.0029 2.84241C14.8938 2.84241 18.9598 2.69157 20.6651 3.36455C21.802 3.81708 22.6779 4.69313 23.1361 5.83605C23.8147 7.54753 23.6581 11.6087 23.6581 13.5C23.6581 15.3913 23.8147 19.4583 23.1361 21.164Z" fill="black"/>
</svg>
